# xmcd CD database file
#
# Track frame offsets:
#	150
#	29551
#	62150
#	107527
#	146200
#	161837
#	197824
#	224055
#	262910
#	276473
#	318970
#
# Disc length: 4459 seconds
#
# Revision: 0
# Processed by: cddbd v1.5PL3 Copyright (c) Steve Scherf et al.
# Submitted via: CDex 1.51
#
DISCID=b211690b
DTITLE=Kitty Margolis - Heart and Soul: Live in San Francisco
DYEAR=2004
DGENRE=Jazz
TTITLE0=Love Walked In
TTITLE1=A Sleepin' Bee
TTITLE2=Summertime
TTITLE3=Heart and Soul
TTITLE4=Your Mind Is on Vacation
TTITLE5=Secret Love
TTITLE6=Surrey with the Fringe on Top
TTITLE7=Spring Will Be a Little Late This Year
TTITLE8=I'm Always Drunk in San Francisco
TTITLE9=My Favorite Things
TTITLE10=While We're Young
EXTD=YEAR: 2004
EXTT0=
EXTT1=
EXTT2=
EXTT3=
EXTT4=
EXTT5=
EXTT6=
EXTT7=
EXTT8=
EXTT9=
EXTT10=
PLAYORDER=
